<svg id="Layer_1" data-name="Layer 1" xmlns="http://www.w3.org/2000/svg" viewBox="0 0 266.64 545.82">
    <path class="fill-rose" d="M223.22,31.63c-27.08-7.58-50.08,7.51-58.32,13.9-.25.19,1.07,3.86,1.48,7.78a26.72,26.72,0,0,1-.39,8.06,67.82,67.82,0,0,0-4.77-13.13c-9.41-15.89-20.94-31.67-45.54-42.47C83.31-8.44,45.25,6.12,27.42,22,16,32.27-14.78,75.72,8.49,128c23.71,53.3,63,66.32,92.4,78.59,16.8,7,1.65,21.19,7,23,2.55.85,23.57-4.21,38.13-8.88,27.53-8.82,103-43.35,116.71-100.46C275.22,68.3,256.55,41,223.22,31.63ZM53.55,123.84C46.45,113,43.71,96.42,45.18,92.19s19-18,35.72-22.12,33.84-1.85,43,15c4.24,7.82,4.63,12.08,4.67,14.91s-10.91,27-15.64,31S91.79,144.3,83,145,60.64,134.66,53.55,123.84Zm117.72,39.71c-2,1.5-5.17,1.78-5.38,2.34-.31.8-.84,5.77-2.91,6.67-1.26.55.77-5.7,0-5.92-1.12-.31-5.52.07-6.63.8s-1.36,6.5-3.36,7.08c-1.6.47.3-5.42-.24-6.64s-7.79-1.32-8.64-.94-1.23,3.5-2.59,5.15c-1.74,2.1-2.27-.64-1.72-1.93.72-1.66,1-3.11.15-3.61s-12.71-1.56-18.74-7.69c-4-4,1.24-1.61,1.24-1.61a55.29,55.29,0,0,0,7.89,4.06c3.13,1.16,7.75,2.39,10.06,2,1.27-.21,1.33-2.56,1.43-4.92.15-3.52,1.93-2.94,2.4.27.34,2.37-.63,4.4,0,5s7.24.69,8.24.68,1.43-1.79,1.13-5.61c-.19-2.4,1.5-3.4,2.25.61.44,2.38-.39,5.07.86,5.11,1.7.06,5.53.18,6.4-.77.65-.71.76-3.7.58-5.29-.36-3,1.41-3.41,1.83-.66.35,2.24.12,5.11.78,5.43s2.24-.35,4.14-1C172.85,161.25,173.15,162.16,171.26,163.55Zm53.27-22.41c-4.88,5.31-10.49,8.49-18.66,5.32S191,134.07,184.7,125.83c-5.57-7.25-12.21-20.36-11.2-25.06,2.71-12.49,18.73-24.35,26.49-22.12s28.44,11.36,33.8,24.56S229.42,135.84,224.54,141.15ZM105.07,71.92c4.83.51,19.21,11.74,20.62,26.59.62,6.55-11.79,27.52-14.75,30.89s-20.2,13.31-30.06,14c-1.46.1,15-3.89,24.54-15.5,5.56-6.8,14.29-20.59,14.34-28.17C119.86,86.7,101.15,71.51,105.07,71.92Zm91.76,8.52c5.13-.16,27.59,10.64,33.8,22.27,5.34,10-3.46,38.82-17.41,43.46-1.69.56,17-12.32,14.13-37.08-1.56-13.35-24.73-23-29-24.47-3.94-1.32-8.72,1.37-10.36.48C186.9,84.53,191.52,80.6,196.83,80.44Z"/>
    <path class="fill-white" d="M196,317l-61.31,61.31L73.41,317A1,1,0,0,0,72,318.37l61.31,61.31L72,441a1,1,0,0,0,1.41,1.41l61.31-61.31L196,442.4a1,1,0,1,0,1.41-1.41l-61.31-61.31,61.31-61.31A1,1,0,0,0,196,317Z"/>
    <path class="fill-rose" d="M55.63,355.47a26.09,26.09,0,0,1,11.92,2.11,18.54,18.54,0,0,1,7.61,6.51,15.78,15.78,0,0,1,2.11,4.84,6.32,6.32,0,0,1,.31,1.14,2.46,2.46,0,0,1,0,1.23,1.52,1.52,0,0,1-1.23,1.1,14.48,14.48,0,0,1-2.11.13H68a2.41,2.41,0,0,1-1.36-.35,1.88,1.88,0,0,1-1-1.1,10.17,10.17,0,0,0-.7-1.54,13.1,13.1,0,0,0-1.14-1.76,8,8,0,0,0-1.41-1.41,10.54,10.54,0,0,0-2.73-1.23,3.33,3.33,0,0,0-1.06-.18,2.56,2.56,0,0,1-1-.18h-.88a9.17,9.17,0,0,0-2.81.35,9.61,9.61,0,0,0-4.13,2.42,12.57,12.57,0,0,0-2.55,3.91,9.37,9.37,0,0,0-.66,2.07q-.22,1.1-.48,2.33a2.88,2.88,0,0,0-.09.7,2.94,2.94,0,0,1-.09.7,11.52,11.52,0,0,0-.13,2.46,15.28,15.28,0,0,0,.22,2.46,3.52,3.52,0,0,0,.09,1,6.15,6.15,0,0,1,.22,1.23,5.92,5.92,0,0,0,.22,1.23,21.21,21.21,0,0,0,1.67,3.69,9.45,9.45,0,0,0,2.46,2.81,7,7,0,0,0,1.06.62,5.37,5.37,0,0,0,2,.79q1,.18,2.51.35h.53a1.23,1.23,0,0,0,.53-.09h.79q.61-.18,1.19-.31t1.1-.31a8.8,8.8,0,0,0,4-3.34,4.9,4.9,0,0,0,.62-1c.18-.38.32-.72.44-1l.62-1.71a2.14,2.14,0,0,1,1.23-1.19,6.37,6.37,0,0,1,2.55-.31q1.76,0,2.9,0c.41,0,.84,0,1.28,0a2.54,2.54,0,0,1,1.1.13h.7a5.75,5.75,0,0,0,.7.13.89.89,0,0,1,.53.22,1.66,1.66,0,0,1,.57,1,3.08,3.08,0,0,1,0,1.36,28.22,28.22,0,0,1-1.93,5.19,19.4,19.4,0,0,1-11.52,9.41,12.13,12.13,0,0,1-1.85.4,15,15,0,0,0-1.94.4,6.52,6.52,0,0,1-1.06.09,6.36,6.36,0,0,0-1.06.09h-1a3.32,3.32,0,0,1-1.32.13,10,10,0,0,1-1.32-.13,4,4,0,0,0-1.28-.13,3.39,3.39,0,0,1-1.19-.13q-.44-.09-.88-.13t-.88-.13L48.59,402a13.9,13.9,0,0,1-1.67-.62A22.09,22.09,0,0,1,40,396.85a21.15,21.15,0,0,1-4.57-6.9,8,8,0,0,1-.7-1.71q-.26-.92-.53-1.89a2.7,2.7,0,0,1-.09-.66,2.1,2.1,0,0,0-.18-.75,4.57,4.57,0,0,1-.18-1.28,4.64,4.64,0,0,0-.18-1.28v-1.5a3,3,0,0,1,0-2,1.83,1.83,0,0,0,0-.79,1.42,1.42,0,0,1,0-.7,3.21,3.21,0,0,0,.13-1.14,2.59,2.59,0,0,1,.13-1.06q.44-1.58.7-3a16.58,16.58,0,0,1,.79-2.86,24.09,24.09,0,0,1,4.88-7.48A21.9,21.9,0,0,1,47.71,357a11.09,11.09,0,0,1,2.55-.75q1.32-.22,2.73-.57a10.78,10.78,0,0,1,1.32-.09A10.61,10.61,0,0,0,55.63,355.47Z"/>
    <path class="fill-rose" d="M210.71,355.45a33.54,33.54,0,0,1,11.48,1.45,13.65,13.65,0,0,1,7.43,5.59,19.13,19.13,0,0,1,1.1,2,14.47,14.47,0,0,1,.84,2.24,3.61,3.61,0,0,1,.18,1.14,2.84,2.84,0,0,1-.18,1.06,1.69,1.69,0,0,1-1,.7,2.83,2.83,0,0,1-1.06.18h-5.1q-.62,0-1.23,0a2.89,2.89,0,0,1-1.14-.13,2.21,2.21,0,0,1-1.32-.7,9.16,9.16,0,0,1-.79-1.1,11.89,11.89,0,0,1-.66-1.23,2.8,2.8,0,0,0-.92-1.1,7.4,7.4,0,0,0-1.71-1.06,11.89,11.89,0,0,0-2.07-.62,9.67,9.67,0,0,0-1.8-.26,5.53,5.53,0,0,0-1.8.09h-.62c-.29.06-.57.1-.84.13s-.54.07-.84.13a6.93,6.93,0,0,0-2.42,1.19,3.93,3.93,0,0,0-1.28,2.24,1.88,1.88,0,0,0,0,1.14,6.53,6.53,0,0,0,.35.88,5.4,5.4,0,0,0,1.45,1.67,8.34,8.34,0,0,0,2,1.06,24,24,0,0,0,3.65,1.19q2,.48,4,.88t4,.88a28,28,0,0,1,3.74,1.19,12.19,12.19,0,0,0,1.54.57,5.91,5.91,0,0,1,1.45.66,22.33,22.33,0,0,1,3,2.29,8.71,8.71,0,0,1,2.15,3.08,10.67,10.67,0,0,1,.44,1.23q.18.62.35,1.32a14.82,14.82,0,0,1,.13,1.63,10.11,10.11,0,0,1,0,1.71v.44a4.44,4.44,0,0,0-.22,1,9.19,9.19,0,0,1-.13.92,14.48,14.48,0,0,1-1.93,4.66,12,12,0,0,1-3.43,3.43,23.82,23.82,0,0,1-4.57,2.29,8,8,0,0,1-2.07.62q-1.1.18-2.15.44a10.07,10.07,0,0,1-1.63.22,9.74,9.74,0,0,0-1.63.22H214a9.32,9.32,0,0,1-3.61,0,4.1,4.1,0,0,1-.57,0,4.58,4.58,0,0,0-.66,0q-1.06-.18-2.11-.26a11.22,11.22,0,0,1-2-.35,37.06,37.06,0,0,1-6.07-2.24,11.88,11.88,0,0,1-4.49-3.83,17.26,17.26,0,0,1-2.11-3.87A11.92,11.92,0,0,1,192,391a4.82,4.82,0,0,1-.26-1.23,3.1,3.1,0,0,1,.09-1.32,1.62,1.62,0,0,1,.88-.88,2.84,2.84,0,0,1,1.06-.18h6.86a3.91,3.91,0,0,1,1.23.18,2,2,0,0,1,1.28,1.14q.31.79.75,1.67a6.25,6.25,0,0,0,.66,1.14,2.65,2.65,0,0,0,.84.88,10.57,10.57,0,0,0,2,1.36,15.07,15.07,0,0,0,2.46.92,1.82,1.82,0,0,0,.88.13,3,3,0,0,1,.88,0,5.13,5.13,0,0,0,1.54.13,6.5,6.5,0,0,0,1.45-.22,4.34,4.34,0,0,1,.84-.09,2.24,2.24,0,0,0,.84-.18,12.16,12.16,0,0,0,2.24-1.06,4.94,4.94,0,0,0,1.63-1.58,6.42,6.42,0,0,0,.7-2.2,1.9,1.9,0,0,0,0-1.14,7,7,0,0,0-.35-.88,4.66,4.66,0,0,0-1.54-1.85,13.51,13.51,0,0,0-2.16-1.14,22.55,22.55,0,0,0-3.52-1.14q-1.85-.44-3.69-1a11.78,11.78,0,0,0-1.45-.26,11.18,11.18,0,0,1-1.45-.26q-2.82-.79-5.36-1.54a15.54,15.54,0,0,1-4.66-2.24,10.11,10.11,0,0,1-3.61-4.75,15.52,15.52,0,0,1-.35-1.67,8.47,8.47,0,0,1-.26-1.5,4.59,4.59,0,0,1,.09-1.58,1.17,1.17,0,0,0,.09-.75,1.16,1.16,0,0,1,.09-.75q.18-1,.4-1.8a11.06,11.06,0,0,1,3.74-5.76,17.35,17.35,0,0,1,4.57-2.55,9.66,9.66,0,0,1,2-.66l2.2-.48a4.58,4.58,0,0,1,1.06-.22q.53,0,1.06-.13a12.2,12.2,0,0,1,1.5-.09A12,12,0,0,0,210.71,355.45Z"/>
    <path class="fill-white" d="M163.84,451.26a.66.66,0,0,0-.83-.49,1.51,1.51,0,0,0-.71,1.69,30,30,0,0,1,.76,3.38,19.36,19.36,0,0,0-6.25-7.59l6-1.91a.69.69,0,0,0,.53-.81l-.92-2.47a.69.69,0,0,0-.3-.43L158.08,440a.69.69,0,0,0-.52-.1l-2.63.16a.69.69,0,0,0-.53.81l.7,6.28a19.36,19.36,0,0,0-9.7-2.64,30,30,0,0,1,3.55-.71c.65-.09,1.32-.8,1.26-1.34a.67.67,0,0,0-.79-.56,31.19,31.19,0,0,0-7.64,1.74,19.66,19.66,0,1,0-15.1,26.43,19.36,19.36,0,0,0,7.53,10.1h0l.14.09.31.22A19.54,19.54,0,0,0,164.24,469,29,29,0,0,0,163.84,451.26Zm-1.94,18.29a20.8,20.8,0,0,1-1.94,4,17.49,17.49,0,0,1-28.11,1.66l-.18-.24c-.29-.36-.57-.73-.83-1.11-.12-.17-.22-.36-.33-.54s-.37-.58-.54-.88-.39-.78-.57-1.17c0-.1-.1-.2-.15-.31-.19-.44-.35-.9-.5-1.35a19.55,19.55,0,0,0,14-22.82,17.6,17.6,0,0,1,2.61-.2,17.45,17.45,0,0,1,16.55,23Zm-20.84-18.79A17.5,17.5,0,0,1,128.2,467.6a17.44,17.44,0,0,1,12.49-20.38A17.49,17.49,0,0,1,141.05,450.76Zm-12.17,2.6A19.44,19.44,0,0,0,126.14,468a17.47,17.47,0,1,1,13.7-23.61A26.08,26.08,0,0,0,128.88,453.36Zm34.48-1.94Zm-13.89-9Z"/>
    <path class="fill-white" d="M155.42,276.12c-.29-.19-1.18-.77-4.42-.77a21.57,21.57,0,0,0-7.33,1.5.5.5,0,0,1-.55-.13c-4.13-4.59-6.75-5.17-8.58-5.17-2.61,0-5.39,1.66-8.48,5.07a.5.5,0,0,1-.54.13,21.08,21.08,0,0,0-7.09-1.4c-3.24,0-4.12.58-4.42.77-1.3.85-.83,2.69.2,6.16.31,1.06.64,2.15.78,2.91,1.62,8.75,1.28,10.21.66,12.88a38.29,38.29,0,0,0-1.05,7.77,18.48,18.48,0,0,0,5.21,13.74,20.55,20.55,0,0,0,14.82,6.35h.18a20.55,20.55,0,0,0,14.82-6.35,18.49,18.49,0,0,0,5.21-13.74,36.82,36.82,0,0,0-1.09-7.8c-.64-2.66-1-4.12.69-12.85.15-.75.46-1.81.76-2.83C156.25,278.85,156.73,277,155.42,276.12Zm-26.74,1.44.07-.09c2-2,3.84-3,5.78-3h0c2,0,3.89,1,5.88,3.11l.08.09a.5.5,0,0,1,0,.65.52.52,0,0,1-.13.1,18.9,18.9,0,0,0-5.23,4.05.5.5,0,0,1-.38.17h0a.5.5,0,0,1-.38-.17,30.09,30.09,0,0,0-5.41-4.15C128.5,278,128.58,277.71,128.67,277.56ZM141.51,302c0,5-2.79,8.49-6.79,8.49s-6.79-3.49-6.79-8.49c0-4.81,4.52-12.55,6.43-14.53a.51.51,0,0,1,.72,0C137,289.49,141.51,297.23,141.51,302Zm11.26-20.41c-.34,1.15-.66,2.21-.82,3.08-1.71,8.87-1.42,10.77-.67,13.92a34.48,34.48,0,0,1,1,7.33,16,16,0,0,1-4.52,11.86,18,18,0,0,1-13,5.57h-.31a18,18,0,0,1-12.85-5.57A16,16,0,0,1,117.13,306a36.12,36.12,0,0,1,1-7.33c.73-3.14,1-5-.64-13.91-.17-.91-.51-2.05-.84-3.17-.25-.85-.62-2.11-.79-2.94a.5.5,0,0,1,.42-.59,15.21,15.21,0,0,1,2.16-.13c5.17,0,12,3.23,14.51,6.91a.5.5,0,0,1-.08.66,21.55,21.55,0,0,0-4,5.66c-1.06,2-3.51,7-3.51,10.93,0,6.39,3.93,11,9.33,11s9.33-4.64,9.33-11c0-4-2.46-9-3.51-10.93a21.53,21.53,0,0,0-4-5.66.5.5,0,0,1-.08-.66c2.53-3.61,9.45-6.9,14.51-6.9a15.32,15.32,0,0,1,2.17.13.5.5,0,0,1,.42.59C153.41,279.48,153,280.78,152.77,281.64Z"/>
    <path class="fill-white" d="M60.69,519.68a2.34,2.34,0,1,1,1,3.13A2.36,2.36,0,0,1,60.69,519.68Z"/>
    <path class="fill-white" d="M77.17,529.92a3.46,3.46,0,0,0,2.09,2.26A2.8,2.8,0,0,0,83,530.29l3.37-9.49,1.69.6-3.38,9.51a4.24,4.24,0,0,1-5.87,2.81,4.63,4.63,0,0,1-3-2.83Z"/>
    <path class="fill-white" d="M94.23,536.7a5.12,5.12,0,0,1-4.05.68c-2.11-.58-2.93-1.91-2.33-4.1l2-7.12,1.57.43-1.83,6.64c-.49,1.77.26,2.54,1.62,2.92a4,4,0,0,0,3.4-.7l2-7.41,1.57.43-2.78,10.08-1.57-.43Z"/>
    <path class="fill-white" d="M102.14,525.24l1.59.35-3.07,14.12-1.59-.35Z"/>
    <path class="fill-white" d="M104.39,543.32a1.5,1.5,0,0,0,1.72-.84L107,541l-2.59-11.14,1.73.29,2,9,4.81-7.9,1.75.29-7.22,11.56a3.11,3.11,0,0,1-3.38,1.59,5.29,5.29,0,0,1-1.15-.34l.5-1.41A2.49,2.49,0,0,0,104.39,543.32Z"/>
    <path class="fill-white" d="M124.24,530.84l-2.48,2.28-1-1.18,3.87-3.46,1.58.11-1,14.41-1.79-.12Z"/>
    <path class="fill-white" d="M129.94,540a4.75,4.75,0,0,0,4,2,3.12,3.12,0,0,0,3.38-3,3,3,0,0,0-3.26-3.17,4.53,4.53,0,0,0-3.36,1.31l-1.31-.48.13-7.79,8.83.14,0,1.6-7-.11-.08,5a4.88,4.88,0,0,1,3.4-1.24,4.42,4.42,0,0,1,4.52,4.69c0,2.94-2.31,4.73-5.21,4.68a5.9,5.9,0,0,1-5.05-2.4Z"/>
    <path class="fill-white" d="M142.07,545.19a3.23,3.23,0,0,0,1.3-2.08,1,1,0,0,1-.3.06,1,1,0,0,1-1.09-1,1.16,1.16,0,0,1,1.09-1.23,1.47,1.47,0,0,1,1.45,1.57,4.18,4.18,0,0,1-1.61,3.35Z"/>
    <path class="fill-white" d="M153.07,540.9c4.56-4.8,7-7.58,6.65-10-.26-1.82-1.88-2.4-3.36-2.18a4.83,4.83,0,0,0-3.62,2.36l-1.26-1a6.26,6.26,0,0,1,4.65-3c2.38-.34,5,.66,5.41,3.51s-2.15,6-5.68,9.73l7-1,.23,1.59-9.82,1.42Z"/>
    <path class="fill-white" d="M168.62,524.76c3.84-.89,6.26,2.57,7.06,6s.15,7.63-3.69,8.52-6.27-2.61-7.07-6S164.76,525.65,168.62,524.76Zm.36,1.56c-2.68.62-2.91,3.72-2.26,6.53s2.23,5.5,4.91,4.88,2.91-3.74,2.26-6.55S171.66,525.7,169,526.32Z"/>
    <path class="fill-white" d="M179.13,524.62l-1.51,3-1.36-.74,2.38-4.62,1.51-.46,4.2,13.82-1.72.52Z"/>
    <path class="fill-white" d="M190,520l-7.29,2.71-.56-1.5,9.23-3.43.43,1.16-.94,14.44-1.87.69Z"/>
    <path class="fill-white" d="M207.16,520.59a2.34,2.34,0,1,1,3.15.94A2.36,2.36,0,0,1,207.16,520.59Z"/>
</svg>
