<svg id="heartskull-logo" class="heartskull-logo" xmlns="http://www.w3.org/2000/svg" viewBox="0 0 266.64 545.82">
    <path style="fill:#F8BBCA; stroke:#fcf7f2; stroke-width:2; stroke-linejoin:round;" d="M223.22,31.63c-27.08-7.58-50.08,7.51-58.32,13.9-.25.19,1.07,3.86,1.48,7.78a26.72,26.72,0,0,1-.39,8.06,67.82,67.82,0,0,0-4.77-13.13c-9.41-15.89-20.94-31.67-45.54-42.47C83.31-8.44,45.25,6.12,27.42,22,16,32.27-14.78,75.72,8.49,128c23.71,53.3,63,66.32,92.4,78.59,16.8,7,1.65,21.19,7,23,2.55.85,23.57-4.21,38.13-8.88,27.53-8.82,103-43.35,116.71-100.46C275.22,68.3,256.55,41,223.22,31.63ZM53.55,123.84C46.45,113,43.71,96.42,45.18,92.19s19-18,35.72-22.12,33.84-1.85,43,15c4.24,7.82,4.63,12.08,4.67,14.91s-10.91,27-15.64,31S91.79,144.3,83,145,60.64,134.66,53.55,123.84Zm117.72,39.71c-2,1.5-5.17,1.78-5.38,2.34-.31.8-.84,5.77-2.91,6.67-1.26.55.77-5.7,0-5.92-1.12-.31-5.52.07-6.63.8s-1.36,6.5-3.36,7.08c-1.6.47.3-5.42-.24-6.64s-7.79-1.32-8.64-.94-1.23,3.5-2.59,5.15c-1.74,2.1-2.27-.64-1.72-1.93.72-1.66,1-3.11.15-3.61s-12.71-1.56-18.74-7.69c-4-4,1.24-1.61,1.24-1.61a55.29,55.29,0,0,0,7.89,4.06c3.13,1.16,7.75,2.39,10.06,2,1.27-.21,1.33-2.56,1.43-4.92.15-3.52,1.93-2.94,2.4.27.34,2.37-.63,4.4,0,5s7.24.69,8.24.68,1.43-1.79,1.13-5.61c-.19-2.4,1.5-3.4,2.25.61.44,2.38-.39,5.07.86,5.11,1.7.06,5.53.18,6.4-.77.65-.71.76-3.7.58-5.29-.36-3,1.41-3.41,1.83-.66.35,2.24.12,5.11.78,5.43s2.24-.35,4.14-1C172.85,161.25,173.15,162.16,171.26,163.55Zm53.27-22.41c-4.88,5.31-10.49,8.49-18.66,5.32S191,134.07,184.7,125.83c-5.57-7.25-12.21-20.36-11.2-25.06,2.71-12.49,18.73-24.35,26.49-22.12s28.44,11.36,33.8,24.56S229.42,135.84,224.54,141.15ZM105.07,71.92c4.83.51,19.21,11.74,20.62,26.59.62,6.55-11.79,27.52-14.75,30.89s-20.2,13.31-30.06,14c-1.46.1,15-3.89,24.54-15.5,5.56-6.8,14.29-20.59,14.34-28.17C119.86,86.7,101.15,71.51,105.07,71.92Zm91.76,8.52c5.13-.16,27.59,10.64,33.8,22.27,5.34,10-3.46,38.82-17.41,43.46-1.69.56,17-12.32,14.13-37.08-1.56-13.35-24.73-23-29-24.47-3.94-1.32-8.72,1.37-10.36.48C186.9,84.53,191.52,80.6,196.83,80.44Z"/>
</svg>
